<svg width="77" height="78" viewBox="0 0 77 78" fill="none" xmlns="http://www.w3.org/2000/svg">
<path d="M31.9609 56.6598C27.9858 55.0827 24.6812 52.1587 22.6165 48.3915C20.5517 44.6244 19.856 40.2499 20.6493 36.0216C21.4425 31.7934 23.675 27.9761 26.9622 25.2275C30.2493 22.4788 34.3853 20.9708 38.6577 20.9633C42.9301 20.9558 47.0713 22.4492 50.368 25.1863C53.6646 27.9234 55.9104 31.7328 56.7182 35.9582C57.5261 40.1836 56.8456 44.5605 54.7939 48.335C52.7422 52.1094 49.4478 55.045 45.4782 56.636L41.7381 47.1701C43.5207 46.4556 45 45.1374 45.9214 43.4425C46.8427 41.7476 47.1483 39.7821 46.7855 37.8847C46.4227 35.9872 45.4143 34.2766 43.9339 33.0476C42.4535 31.8185 40.5939 31.1478 38.6754 31.1512C36.7569 31.1546 34.8996 31.8317 33.4235 33.066C31.9474 34.3003 30.9449 36.0145 30.5886 37.9132C30.2324 39.8119 30.5448 41.7762 31.472 43.4679C32.3992 45.1596 33.8831 46.4726 35.6682 47.1808L31.9609 56.6598Z" fill="#0A5D45"/>
<path d="M74.7963 53.1751C72.9481 57.9463 70.1846 62.3046 66.6642 66.0003C63.1437 69.6961 58.9346 72.6574 54.2779 74.7149C49.6213 76.7723 44.6076 77.8856 39.5237 77.9916C34.4399 78.0976 29.3852 77.1942 24.6481 75.3328L29.0164 64.0546C29.0628 64.0729 29.1093 64.0925 29.1559 64.1105C42.8787 69.4139 58.2645 62.5495 63.5992 48.7755L74.7963 53.1751ZM21.9079 18.0995C18.3806 20.9729 15.5329 24.79 13.7907 29.3626C10.269 38.6065 12.1512 48.6003 17.8754 55.8135L8.49669 63.3776C5.31822 59.3798 2.95241 54.79 1.53487 49.8714C0.117412 44.953 -0.324315 39.8014 0.234826 34.7111C0.794043 29.6206 2.34333 24.6903 4.79411 20.2028C6.98079 16.199 9.84703 12.6173 13.2587 9.61806L21.9079 18.0995ZM34.4141 0.242246C38.9443 -0.268526 43.5329 0.0292889 47.9674 1.12743C52.9053 2.35027 57.5563 4.54091 61.6537 7.57387C65.751 10.6068 69.2156 14.4228 71.8487 18.8041C74.4818 23.1855 76.232 28.0467 77 33.1095L65.1249 34.9363C63.716 25.7049 57.5677 17.4727 48.2902 13.887C43.881 12.183 39.2999 11.7357 34.9357 12.3695L34.4141 0.242246Z" fill="#037B58"/>
<path d="M35.793 31.682C35.7753 31.6886 35.7578 31.6955 35.7402 31.7023L28.1896 24.2866C30.3376 22.7782 32.7759 21.755 35.3373 21.2758L35.793 31.682Z" fill="#037B58"/>
</svg>
