<svg width="1440" height="156" viewBox="0 0 1440 156" fill="none" xmlns="http://www.w3.org/2000/svg">
<mask id="mask0_1105_19" style="mask-type:alpha" maskUnits="userSpaceOnUse" x="0" y="0" width="1440" height="156">
<rect width="1440" height="155.047" transform="matrix(-1 0 0 1 1440 0)" fill="#D9D9D9"/>
</mask>
<g mask="url(#mask0_1105_19)">
<ellipse cx="393.999" cy="-294.415" rx="1101.51" ry="404.702" transform="rotate(-9.08382 393.999 -294.415)" fill="url(#paint0_linear_1105_19)"/>
<ellipse cx="1239.43" cy="-244.504" rx="1101.51" ry="404.702" transform="rotate(-3.65146 1239.43 -244.504)" fill="url(#paint1_linear_1105_19)"/>
<ellipse opacity="0.85" cx="1101.51" cy="404.702" rx="1101.51" ry="404.702" transform="matrix(-0.991073 -0.13332 -0.13332 0.991073 1853.14 -556.125)" fill="url(#paint2_radial_1105_19)"/>
<ellipse opacity="0.78" cx="1101.51" cy="404.702" rx="1101.51" ry="404.702" transform="matrix(-0.991507 0.130055 0.130055 0.991507 978.805 -808.283)" fill="url(#paint3_linear_1105_19)"/>
</g>
<defs>
<linearGradient id="paint0_linear_1105_19" x1="393.999" y1="-699.116" x2="393.999" y2="110.287" gradientUnits="userSpaceOnUse">
<stop offset="0.600962" stop-color="#037B58"/>
<stop offset="1" stop-color="#22BD8C"/>
</linearGradient>
<linearGradient id="paint1_linear_1105_19" x1="1239.43" y1="-649.206" x2="1239.43" y2="160.198" gradientUnits="userSpaceOnUse">
<stop offset="0.600962" stop-color="#39F2BC"/>
<stop offset="1" stop-color="#E4FFF6"/>
</linearGradient>
<radialGradient id="paint2_radial_1105_19" cx="0" cy="0" r="1" gradientUnits="userSpaceOnUse" gradientTransform="translate(1101.51 404.702) rotate(90) scale(404.702 404.702)">
<stop stop-color="#22BDB4"/>
<stop offset="1" stop-color="#71E6B3"/>
</radialGradient>
<linearGradient id="paint3_linear_1105_19" x1="1101.51" y1="0" x2="1101.51" y2="809.404" gradientUnits="userSpaceOnUse">
<stop offset="0.192308" stop-color="#ACF2FF"/>
<stop offset="1" stop-color="#B1FCDB"/>
</linearGradient>
</defs>
</svg>
