<svg width="146" height="57" viewBox="0 0 146 57" fill="none" xmlns="http://www.w3.org/2000/svg">
<path d="M70.7887 16.04V20.7H75.8687V22.2H70.7887V27H76.4687V28.5H68.9687V14.54H76.4687V16.04H70.7887ZM83.3026 26.82L86.7026 17.54H88.6426L84.3426 28.5H82.2226L77.9226 17.54H79.8826L83.3026 26.82ZM100.434 22.6C100.434 22.9467 100.414 23.3133 100.374 23.7H91.6136C91.6802 24.78 92.0469 25.6267 92.7136 26.24C93.3936 26.84 94.2136 27.14 95.1736 27.14C95.9602 27.14 96.6136 26.96 97.1336 26.6C97.6669 26.2267 98.0402 25.7333 98.2536 25.12H100.214C99.9202 26.1733 99.3336 27.0333 98.4536 27.7C97.5736 28.3533 96.4802 28.68 95.1736 28.68C94.1336 28.68 93.2002 28.4467 92.3736 27.98C91.5602 27.5133 90.9202 26.8533 90.4536 26C89.9869 25.1333 89.7536 24.1333 89.7536 23C89.7536 21.8667 89.9802 20.8733 90.4336 20.02C90.8869 19.1667 91.5202 18.5133 92.3336 18.06C93.1602 17.5933 94.1069 17.36 95.1736 17.36C96.2136 17.36 97.1336 17.5867 97.9336 18.04C98.7336 18.4933 99.3469 19.12 99.7736 19.92C100.214 20.7067 100.434 21.6 100.434 22.6ZM98.5536 22.22C98.5536 21.5267 98.4002 20.9333 98.0936 20.44C97.7869 19.9333 97.3669 19.5533 96.8336 19.3C96.3136 19.0333 95.7336 18.9 95.0936 18.9C94.1736 18.9 93.3869 19.1933 92.7336 19.78C92.0936 20.3667 91.7269 21.18 91.6336 22.22H98.5536ZM108.176 17.34C109.509 17.34 110.589 17.7467 111.416 18.56C112.243 19.36 112.656 20.52 112.656 22.04V28.5H110.856V22.3C110.856 21.2067 110.583 20.3733 110.036 19.8C109.489 19.2133 108.743 18.92 107.796 18.92C106.836 18.92 106.069 19.22 105.496 19.82C104.936 20.42 104.656 21.2933 104.656 22.44V28.5H102.836V17.54H104.656V19.1C105.016 18.54 105.503 18.1067 106.116 17.8C106.743 17.4933 107.429 17.34 108.176 17.34ZM117.849 19.04V25.5C117.849 26.0333 117.962 26.4133 118.189 26.64C118.416 26.8533 118.809 26.96 119.369 26.96H120.709V28.5H119.069C118.056 28.5 117.296 28.2667 116.789 27.8C116.282 27.3333 116.029 26.5667 116.029 25.5V19.04H114.609V17.54H116.029V14.78H117.849V17.54H120.709V19.04H117.849ZM127.694 28.68C126.667 28.68 125.734 28.4467 124.894 27.98C124.067 27.5133 123.414 26.8533 122.934 26C122.467 25.1333 122.234 24.1333 122.234 23C122.234 21.88 122.474 20.8933 122.954 20.04C123.447 19.1733 124.114 18.5133 124.954 18.06C125.794 17.5933 126.734 17.36 127.774 17.36C128.814 17.36 129.754 17.5933 130.594 18.06C131.434 18.5133 132.094 19.1667 132.574 20.02C133.067 20.8733 133.314 21.8667 133.314 23C133.314 24.1333 133.061 25.1333 132.554 26C132.061 26.8533 131.387 27.5133 130.534 27.98C129.681 28.4467 128.734 28.68 127.694 28.68ZM127.694 27.08C128.347 27.08 128.961 26.9267 129.534 26.62C130.107 26.3133 130.567 25.8533 130.914 25.24C131.274 24.6267 131.454 23.88 131.454 23C131.454 22.12 131.281 21.3733 130.934 20.76C130.587 20.1467 130.134 19.6933 129.574 19.4C129.014 19.0933 128.407 18.94 127.754 18.94C127.087 18.94 126.474 19.0933 125.914 19.4C125.367 19.6933 124.927 20.1467 124.594 20.76C124.261 21.3733 124.094 22.12 124.094 23C124.094 23.8933 124.254 24.6467 124.574 25.26C124.907 25.8733 125.347 26.3333 125.894 26.64C126.441 26.9333 127.041 27.08 127.694 27.08ZM139.587 28.68C138.747 28.68 137.994 28.54 137.327 28.26C136.66 27.9667 136.134 27.5667 135.747 27.06C135.36 26.54 135.147 25.9467 135.107 25.28H136.987C137.04 25.8267 137.294 26.2733 137.747 26.62C138.214 26.9667 138.82 27.14 139.567 27.14C140.26 27.14 140.807 26.9867 141.207 26.68C141.607 26.3733 141.807 25.9867 141.807 25.52C141.807 25.04 141.594 24.6867 141.167 24.46C140.74 24.22 140.08 23.9867 139.187 23.76C138.374 23.5467 137.707 23.3333 137.187 23.12C136.68 22.8933 136.24 22.5667 135.867 22.14C135.507 21.7 135.327 21.1267 135.327 20.42C135.327 19.86 135.494 19.3467 135.827 18.88C136.16 18.4133 136.634 18.0467 137.247 17.78C137.86 17.5 138.56 17.36 139.347 17.36C140.56 17.36 141.54 17.6667 142.287 18.28C143.034 18.8933 143.434 19.7333 143.487 20.8H141.667C141.627 20.2267 141.394 19.7667 140.967 19.42C140.554 19.0733 139.994 18.9 139.287 18.9C138.634 18.9 138.114 19.04 137.727 19.32C137.34 19.6 137.147 19.9667 137.147 20.42C137.147 20.78 137.26 21.08 137.487 21.32C137.727 21.5467 138.02 21.7333 138.367 21.88C138.727 22.0133 139.22 22.1667 139.847 22.34C140.634 22.5533 141.274 22.7667 141.767 22.98C142.26 23.18 142.68 23.4867 143.027 23.9C143.387 24.3133 143.574 24.8533 143.587 25.52C143.587 26.12 143.42 26.66 143.087 27.14C142.754 27.62 142.28 28 141.667 28.28C141.067 28.5467 140.374 28.68 139.587 28.68Z" fill="#0A5D45"/>
<path d="M23.6594 41.4052C20.7168 40.2528 18.2705 38.116 16.7421 35.3631C15.2136 32.6101 14.6986 29.4134 15.2858 26.3235C15.873 23.2336 17.5256 20.4441 19.959 18.4354C22.3924 16.4268 25.4541 15.3248 28.6167 15.3193C31.7794 15.3139 34.845 16.4052 37.2854 18.4054C39.7258 20.4056 41.3882 23.1893 41.9862 26.2771C42.5843 29.365 42.0805 32.5635 40.5617 35.3217C39.0429 38.0799 36.6042 40.2252 33.6657 41.3879L30.8971 34.4705C32.2166 33.9484 33.3117 32.985 33.9937 31.7464C34.6757 30.5079 34.902 29.0716 34.6334 27.685C34.3649 26.2984 33.6183 25.0483 32.5225 24.1501C31.4266 23.252 30.05 22.7619 28.6298 22.7643C27.2096 22.7668 25.8347 23.2617 24.742 24.1636C23.6493 25.0656 22.9072 26.3183 22.6435 27.7058C22.3799 29.0933 22.6111 30.5288 23.2975 31.765C23.9838 33.0012 25.0823 33.9607 26.4037 34.4783L23.6594 41.4052Z" fill="#0A5D45"/>
<path d="M55.3687 38.8587C54.0005 42.3454 51.9548 45.5303 49.3488 48.231C46.7428 50.9317 43.6269 53.0958 40.1798 54.5994C36.7326 56.1029 33.0212 56.9164 29.2578 56.9939C25.4945 57.0714 21.7527 56.4112 18.246 55.0509L21.4797 46.8092C21.514 46.8225 21.5484 46.8368 21.5829 46.85C31.7414 50.7255 43.1309 45.7093 47.08 35.6436L55.3687 38.8587ZM16.2175 13.2266C13.6065 15.3263 11.4984 18.1158 10.2087 21.4573C7.60172 28.2125 8.99503 35.5156 13.2324 40.7868L6.28976 46.3144C3.93686 43.3929 2.18555 40.0389 1.1362 36.4445C0.0869155 32.8503 -0.240077 29.0857 0.173833 25.3658C0.587798 21.6458 1.73467 18.0429 3.54888 14.7636C5.16759 11.8377 7.28936 9.22035 9.81491 7.02858L16.2175 13.2266ZM25.4754 0.177026C28.8289 -0.196231 32.2257 0.0214034 35.5084 0.823888C39.1637 1.71751 42.6066 3.31836 45.6398 5.53475C48.6728 7.75114 51.2375 10.5398 53.1867 13.7415C55.1359 16.9432 56.4315 20.4957 57 24.1954L48.2093 25.5304C47.1664 18.7844 42.615 12.7685 35.7473 10.1482C32.4833 8.90297 29.0921 8.57611 25.8615 9.03923L25.4754 0.177026Z" fill="#037B58"/>
<path d="M26.4961 23.1522C26.483 23.1571 26.47 23.1621 26.457 23.1671L20.8676 17.7479C22.4577 16.6456 24.2627 15.8979 26.1587 15.5477L26.4961 23.1522Z" fill="#037B58"/>
<path d="M76.1847 50.72C75.0554 50.72 74.014 50.5293 73.0607 50.148C72.122 49.752 71.3007 49.202 70.5967 48.498C69.9074 47.7793 69.372 46.936 68.9907 45.968C68.6094 44.9853 68.4187 43.9147 68.4187 42.756C68.4187 41.6267 68.6167 40.5853 69.0127 39.632C69.4087 38.664 69.966 37.828 70.6847 37.124C71.4034 36.4053 72.2467 35.848 73.2147 35.452C74.1827 35.056 75.2314 34.858 76.3607 34.858C77.094 34.858 77.8127 34.9607 78.5167 35.166C79.2354 35.3567 79.888 35.6427 80.4747 36.024C81.076 36.4053 81.5894 36.86 82.0147 37.388L79.9467 39.676C79.5947 39.324 79.228 39.0233 78.8467 38.774C78.48 38.51 78.084 38.312 77.6587 38.18C77.248 38.0333 76.808 37.96 76.3387 37.96C75.708 37.96 75.114 38.0773 74.5567 38.312C74.014 38.5467 73.5374 38.8767 73.1267 39.302C72.716 39.7127 72.386 40.2187 72.1367 40.82C71.902 41.4067 71.7847 42.0593 71.7847 42.778C71.7847 43.5113 71.902 44.1787 72.1367 44.78C72.3714 45.3667 72.7014 45.8727 73.1267 46.298C73.552 46.7087 74.058 47.0313 74.6447 47.266C75.246 47.486 75.906 47.596 76.6247 47.596C77.094 47.596 77.5487 47.53 77.9887 47.398C78.4287 47.266 78.832 47.0827 79.1987 46.848C79.58 46.6133 79.9174 46.342 80.2107 46.034L81.8167 48.608C81.4647 49.004 80.988 49.3633 80.3867 49.686C79.8 50.0087 79.14 50.2653 78.4067 50.456C77.6734 50.632 76.9327 50.72 76.1847 50.72Z" fill="#0A5D45"/>
<path d="M84.5987 50.5V35.1H87.5467L96.0607 46.606H95.4447C95.386 46.1513 95.3347 45.7113 95.2907 45.286C95.2467 44.846 95.2027 44.406 95.1587 43.966C95.1293 43.5113 95.1 43.0493 95.0707 42.58C95.056 42.096 95.0413 41.59 95.0267 41.062C95.012 40.5193 95.0047 39.9327 95.0047 39.302V35.1H98.2387V50.5H95.2467L86.5567 38.884L87.3927 38.906C87.466 39.6687 87.5247 40.3213 87.5687 40.864C87.6273 41.392 87.6713 41.854 87.7007 42.25C87.73 42.646 87.752 42.9907 87.7667 43.284C87.796 43.5773 87.8107 43.856 87.8107 44.12C87.8253 44.384 87.8327 44.6627 87.8327 44.956V50.5H84.5987ZM100.411 50.5L106.439 35.1H109.387L115.393 50.5H112.005L108.903 42.206C108.815 41.9713 108.705 41.6707 108.573 41.304C108.456 40.9373 108.331 40.5487 108.199 40.138C108.067 39.7273 107.943 39.3387 107.825 38.972C107.708 38.5907 107.62 38.2753 107.561 38.026L108.155 38.004C108.067 38.3413 107.965 38.6933 107.847 39.06C107.745 39.412 107.635 39.7787 107.517 40.16C107.4 40.5267 107.275 40.886 107.143 41.238C107.011 41.59 106.887 41.9347 106.769 42.272L103.667 50.5H100.411ZM103.205 47.266L104.283 44.604H111.345L112.445 47.266H103.205ZM119.672 50.5V38.07H115.184V35.1H127.592V38.07H122.972V50.5H119.672Z" fill="#037B58"/>
</svg>
